<?xml version="1.0" encoding="UTF-8" standalone="no"?>
<svg
   viewBox="-21 36 629.4379890136719 384.19961942635996"
   version="1.1"
   id="svg6"
   sodipodi:docname="eGreener_Press_Logo_new.svg"
   inkscape:version="1.3.2 (091e20e, 2023-11-25, custom)"
   xmlns:inkscape="http://www.inkscape.org/namespaces/inkscape"
   xmlns:sodipodi="http://sodipodi.sourceforge.net/DTD/sodipodi-0.dtd"
   xmlns:xlink="http://www.w3.org/1999/xlink"
   xmlns="http://www.w3.org/2000/svg"
   xmlns:svg="http://www.w3.org/2000/svg">
  <defs
     id="defs6" />
  <sodipodi:namedview
     id="namedview6"
     pagecolor="#ffffff"
     bordercolor="#000000"
     borderopacity="0.25"
     inkscape:showpageshadow="2"
     inkscape:pageopacity="0.0"
     inkscape:pagecheckerboard="0"
     inkscape:deskcolor="#d1d1d1"
     inkscape:zoom="3.0478948"
     inkscape:cx="314.64341"
     inkscape:cy="150.4317"
     inkscape:window-width="2560"
     inkscape:window-height="1406"
     inkscape:window-x="3829"
     inkscape:window-y="132"
     inkscape:window-maximized="1"
     inkscape:current-layer="svg6" />
  <svg
     id="Layer_1"
     viewBox="305.17083740234375 -1.8498992919921875 469.6790771484375 1083.7098388671875"
     height="244.19961942635996"
     width="105.8359375"
     y="106"
     x="49"
     preserveAspectRatio="xMinYMin"
     style="overflow: visible;"
     version="1.1">
    <linearGradient
       id="linear-gradient"
       x1="397.55"
       y1="913.93"
       x2="481.52"
       y2="366.75"
       gradientUnits="userSpaceOnUse"
       style="">
      <stop
         offset="0"
         stop-color="#b59eac"
         id="stop1" />
      <stop
         offset="1"
         stop-color="#443a3f"
         id="stop2" />
    </linearGradient>
    <linearGradient
       id="linear-gradient-2"
       x1="377.45"
       y1="971.88"
       x2="371.86"
       y2="910.31"
       xlink:href="#linear-gradient"
       style="" />
    <path
       class="cls-2"
       d="M453.48,157.54c-8.95,9.46-56.48,60.44-95.28,135.21,18.47,37.73,37.56,75.17,62.54,109.16-28.72-22.37-54.04-48.94-78.57-75.79-26.45,60.61-44.35,133.12-34.04,210.04,2.38,18.01,5.95,33.31,10.2,47.7,19.2,15.69,35.52,34.27,52.23,52.62-13.99-8.38-28.32-17.22-43.11-24.81,12.97,36.76,28.61,75.79,38.69,149.77.34,2.45.62,4.85.93,7.27,6.46-71.39,16.09-142.58,30.5-212.9,15.1-71.36,35.19-141.78,61.86-209.65,25.79-64.43,69.24-136.12,106.31-187.61.31-.43.93-.01.67.45-34.77,60.34-61.63,131.51-83.82,196.68-23.7,67.99-40.76,138.11-52.89,208.99-11.87,66.78-19.39,134.3-24,202.03.64-2.02,1.23-4.02,1.91-6.05,39.09-115.9,100.89-119.01,163.59-238.19,56.53-107.46,34.5-159.17,71.6-275.86-45.37,15.41-88.25,39.31-125.75,68.94,38.24-40.84,84.74-74.21,135.67-97.66,3.23-8.78,6.8-17.9,10.76-27.42,36.93-88.76,81.85-153.85,111.37-192.31-51.15,6.57-200.86,32.85-321.35,159.4Z"
       style="fill: #8cab78; fill-opacity: 1;"
       id="path2" />
    <path
       class="cls-1"
       d="M463.63,350.75c-26.68,67.86-46.76,138.28-61.86,209.65-14.64,71.48-24.57,143.85-30.83,216.44-4.49,52.06-7.74,92.8-9.44,139.51,0,.02.02.03.04.03h31.23s.04-.01.04-.03c.03-45.46,2.94-86.86,6.35-137.36,4.85-71.83,12.25-143.52,24.85-214.34,12.13-70.88,29.19-141.01,52.89-208.99,23.06-67.72,51.76-134.03,88.54-195.82.03-.05-.04-.09-.07-.05-40.72,59.56-74.83,123.72-101.74,190.95Z"
       style="fill: #8e968c; fill-opacity: 1;"
       id="path3" />
    <path
       class="cls-3"
       d="M384.61,1005.79c0-4.14-3.34-7.48-7.42-7.48s-7.48,3.34-7.48,7.48c0,3.17,1.98,5.83,4.81,6.91l1.53,69.16-26.17-113.12h54.55l-26.11,113.12,1.53-69.16c2.78-1.08,4.76-3.8,4.76-6.91Z"
       style="fill: #a9b0a7; fill-opacity: 1;"
       id="path4" />
    <polygon
       class="cls-4"
       points="393.11 916.38 361.23 916.38 349.9 968.75 404.43 968.75 393.11 916.38"
       style="fill: #a2a8a0; fill-opacity: 1;"
       id="polygon4" />
  </svg>
  <svg
     y="222.99018878173828"
     viewBox="3.190000057220459 2.640000104904175 436.5199890136719 109.02000427246094"
     x="101.918"
     height="109.02000427246094"
     width="436.5199890136719"
     style="overflow:visible;fill:#1a1a1a"
     version="1.1"
     id="svg5">
    <g
       fill="#ffffff"
       fill-opacity="1"
       style="fill:#1a1a1a"
       id="g5">
      <path
         d="M11.92 77.81L11.92 77.81Q8.55 77.81 5.87 75.62Q3.19 73.44 3.19 68.98L3.19 68.98Q3.19 65.25 4.87 61.06Q6.55 56.88 9.33 53.19Q12.10 49.50 15.52 47.18Q18.93 44.86 22.39 44.86L22.39 44.86Q24.11 44.86 25.75 45.86Q27.39 46.87 27.39 49.32L27.39 49.32Q27.39 51.60 25.66 54.33Q23.93 57.06 20.75 59.42L20.75 59.42Q19.38 60.42 17.29 61.33Q15.20 62.24 13.10 62.84Q11.01 63.43 9.65 63.43L9.65 63.43Q9.19 64.52 8.78 66.34Q8.37 68.16 8.37 70.07L8.37 70.07Q8.37 72.34 9.28 74.17Q10.19 75.98 12.65 75.98L12.65 75.98Q15.65 75.98 18.25 74.26Q20.84 72.53 22.89 69.89Q24.93 67.25 26.39 64.52Q27.85 61.79 28.66 59.88L28.66 59.88Q29.76 59.88 29.76 60.70L29.76 60.70Q28.57 63.25 27.07 66.25Q25.57 69.25 23.52 71.84Q21.48 74.44 18.61 76.12Q15.74 77.81 11.92 77.81ZM10.28 61.79L10.28 61.79Q11.56 61.79 14.56 60.83Q17.56 59.88 20.02 57.79L20.02 57.79Q22.39 55.69 23.66 53.19Q24.93 50.69 24.93 48.96L24.93 48.96Q24.93 46.96 23.48 46.96L23.48 46.96Q22.39 46.96 20.47 48.41Q18.56 49.87 15.74 53.33L15.74 53.33Q14.01 55.51 12.47 58.06Q10.92 60.61 10.28 61.79ZM30.76 111.66L30.76 111.66Q25.39 111.66 22.25 109.66Q19.11 107.65 19.11 104.56L19.11 104.56Q19.11 101.65 21.29 99.10Q23.48 96.55 26.98 94.50Q30.48 92.46 34.63 90.86Q38.77 89.27 42.72 88.22Q46.68 87.18 49.69 86.81L49.69 86.81Q52.51 86.36 55.92 86.09Q59.33 85.81 62.84 85.59Q66.34 85.36 69.16 85.36L69.16 85.36Q72.53 79.63 74.67 74.53Q76.80 69.43 78.44 62.79L78.44 62.79L78.81 61.33Q77.08 62.97 73.94 65.29Q70.80 67.61 66.66 69.93Q62.52 72.25 57.83 73.80Q53.14 75.35 48.23 75.35L48.23 75.35Q41.77 75.35 37.08 72.25Q32.40 69.16 29.89 63.65Q27.39 58.15 27.39 50.96L27.39 50.96Q27.39 46.68 28.48 41.81Q29.57 36.95 32.03 31.85L32.03 31.85Q29.21 28.94 27.62 25.39Q26.03 21.84 26.03 18.11L26.03 18.11Q26.03 14.83 27.39 11.60Q28.76 8.37 31.67 5.37L31.67 5.37Q32.49 4.46 33.22 4.46L33.22 4.46Q33.58 4.46 33.58 4.82L33.58 4.82Q33.58 5.37 32.94 6.10L32.94 6.10Q30.85 8.65 29.85 11.47Q28.85 14.29 28.85 17.11L28.85 17.11Q28.85 20.29 30.08 23.39Q31.30 26.48 33.58 29.12L33.58 29.12Q35.95 24.12 40.09 19.38Q44.23 14.65 49.78 10.87Q55.33 7.10 61.88 4.87Q68.43 2.64 75.53 2.64L75.53 2.64Q84.99 2.64 90.50 6.73Q96.00 10.83 96.00 19.11L96.00 19.11Q96.00 23.02 93.87 26.94Q91.73 30.85 87.41 34.13Q83.08 37.40 76.67 39.40Q70.25 41.41 61.79 41.59L61.79 41.59Q55.15 41.68 48.69 39.90Q42.22 38.13 37.77 35.22L37.77 35.22Q35.49 40.04 34.44 44.64Q33.40 49.23 33.40 53.23L33.40 53.23Q33.40 62.43 37.90 67.25Q42.41 72.07 49.96 72.07L49.96 72.07Q54.05 72.07 58.19 70.84Q62.34 69.62 65.88 67.61Q69.43 65.61 71.94 63.38Q74.44 61.15 75.26 59.24L75.26 59.24Q77.35 54.51 79.40 52.64Q81.44 50.78 83.08 50.78L83.08 50.78Q84.45 50.78 85.40 52.01Q86.36 53.23 86.09 55.33L86.09 55.33Q85.18 62.88 81.95 69.98Q78.72 77.08 73.62 85.36L73.62 85.36Q79.81 85.45 84.77 86.04Q89.73 86.63 93.73 87.63L93.73 87.63Q94.82 87.91 95.23 88.32Q95.64 88.72 95.64 89.00L95.64 89.00Q95.64 89.64 94.55 89.64L94.55 89.64Q94.00 89.64 93.00 89.36L93.00 89.36Q90.91 88.82 87.45 88.41Q83.99 88.00 80.03 87.81Q76.08 87.63 72.44 87.63L72.44 87.63Q68.61 93.09 63.38 97.51Q58.15 101.92 52.28 105.11Q46.41 108.29 40.81 109.97Q35.22 111.66 30.76 111.66ZM59.33 38.86L59.33 38.86Q65.52 38.86 71.34 37.22Q77.17 35.58 81.81 32.67Q86.45 29.76 89.23 25.89Q92.00 22.02 92.00 17.65L92.00 17.65Q92.00 13.65 89.77 10.78Q87.54 7.92 84.08 6.37Q80.63 4.82 76.71 4.82L76.71 4.82Q70.53 4.82 64.88 7.19Q59.24 9.56 54.42 13.51Q49.59 17.47 45.64 22.48Q41.68 27.48 38.95 32.76L38.95 32.76Q42.68 35.58 48.00 37.22Q53.33 38.86 59.33 38.86ZM30.58 109.29L30.58 109.29Q34.13 109.29 38.95 107.88Q43.77 106.47 49.05 103.74Q54.33 101.01 59.20 97.01Q64.06 93.00 67.70 87.81L67.70 87.81Q63.34 87.91 59.10 88.22Q54.87 88.54 50.69 89.27L50.69 89.27Q48.41 89.64 45.09 90.64Q41.77 91.64 38.22 93.18Q34.67 94.73 31.53 96.64Q28.39 98.55 26.44 100.74Q24.48 102.92 24.48 105.20L24.48 105.20Q24.48 106.83 25.89 108.06Q27.30 109.29 30.58 109.29ZM91.82 59.61L91.82 59.61Q92.55 58.06 93.73 54.65Q94.91 51.23 96.19 47.05Q97.46 42.86 98.10 39.13L98.10 39.13Q98.37 37.67 99.10 36.99Q99.83 36.31 100.65 36.31L100.65 36.31Q101.83 36.31 102.83 37.45Q103.83 38.58 103.83 40.68L103.83 40.68Q103.83 43.23 102.33 45.05Q100.83 46.87 98.64 48.50L98.64 48.50Q99.55 48.59 100.55 48.64Q101.56 48.69 102.74 48.69L102.74 48.69Q107.02 48.69 111.20 48.14L111.20 48.14Q111.38 48.69 111.38 48.96L111.38 48.96Q111.38 50.14 110.70 51.96Q110.02 53.78 109.29 55.24L109.29 55.24Q108.93 56.06 107.83 58.19Q106.74 60.33 105.47 63.02Q104.19 65.70 103.33 68.30Q102.47 70.89 102.47 72.71L102.47 72.71Q102.47 75.08 104.29 75.08L104.29 75.08Q106.01 75.08 109.11 71.03Q112.20 66.98 115.30 59.88L115.30 59.88Q116.39 59.88 116.39 60.70L116.39 60.70Q115.39 63.15 113.89 66.07Q112.38 68.98 110.56 71.57Q108.74 74.17 106.65 75.85Q104.56 77.53 102.28 77.53L102.28 77.53Q100.55 77.53 98.83 76.12Q97.10 74.71 97.10 71.53L97.10 71.53Q97.10 68.70 98.19 66.02Q99.28 63.34 100.65 60.97Q102.01 58.60 103.10 56.78Q104.19 54.96 104.19 53.87L104.19 53.87Q104.19 52.23 102.15 51.51Q100.10 50.78 96.82 50.69L96.82 50.69Q95.19 54.87 94.37 56.88Q93.55 58.88 92.82 60.70L92.82 60.70Q91.36 60.70 91.82 59.61ZM121.85 77.81L121.85 77.81Q118.48 77.81 115.80 75.62Q113.11 73.44 113.11 68.98L113.11 68.98Q113.11 65.25 114.80 61.06Q116.48 56.88 119.26 53.19Q122.03 49.50 125.44 47.18Q128.86 44.86 132.31 44.86L132.31 44.86Q134.04 44.86 135.68 45.86Q137.32 46.87 137.32 49.32L137.32 49.32Q137.32 51.60 135.59 54.33Q133.86 57.06 130.68 59.42L130.68 59.42Q129.31 60.42 127.22 61.33Q125.13 62.24 123.03 62.84Q120.94 63.43 119.57 63.43L119.57 63.43Q119.12 64.52 118.71 66.34Q118.30 68.16 118.30 70.07L118.30 70.07Q118.30 72.34 119.21 74.17Q120.12 75.98 122.58 75.98L122.58 75.98Q125.58 75.98 128.17 74.26Q130.77 72.53 132.81 69.89Q134.86 67.25 136.32 64.52Q137.77 61.79 138.59 59.88L138.59 59.88Q139.69 59.88 139.69 60.70L139.69 60.70Q138.50 63.25 137.00 66.25Q135.50 69.25 133.45 71.84Q131.40 74.44 128.54 76.12Q125.67 77.81 121.85 77.81ZM120.21 61.79L120.21 61.79Q121.48 61.79 124.49 60.83Q127.49 59.88 129.95 57.79L129.95 57.79Q132.31 55.69 133.59 53.19Q134.86 50.69 134.86 48.96L134.86 48.96Q134.86 46.96 133.41 46.96L133.41 46.96Q132.31 46.96 130.40 48.41Q128.49 49.87 125.67 53.33L125.67 53.33Q123.94 55.51 122.39 58.06Q120.85 60.61 120.21 61.79ZM145.14 77.81L145.14 77.81Q141.78 77.81 139.09 75.62Q136.41 73.44 136.41 68.98L136.41 68.98Q136.41 65.25 138.09 61.06Q139.78 56.88 142.55 53.19Q145.33 49.50 148.74 47.18Q152.15 44.86 155.61 44.86L155.61 44.86Q157.34 44.86 158.98 45.86Q160.61 46.87 160.61 49.32L160.61 49.32Q160.61 51.60 158.89 54.33Q157.16 57.06 153.97 59.42L153.97 59.42Q152.61 60.42 150.51 61.33Q148.42 62.24 146.33 62.84Q144.23 63.43 142.87 63.43L142.87 63.43Q142.41 64.52 142.01 66.34Q141.60 68.16 141.60 70.07L141.60 70.07Q141.60 72.34 142.51 74.17Q143.42 75.98 145.87 75.98L145.87 75.98Q148.88 75.98 151.47 74.26Q154.06 72.53 156.11 69.89Q158.16 67.25 159.61 64.52Q161.07 61.79 161.89 59.88L161.89 59.88Q162.98 59.88 162.98 60.70L162.98 60.70Q161.80 63.25 160.30 66.25Q158.79 69.25 156.75 71.84Q154.70 74.44 151.83 76.12Q148.97 77.81 145.14 77.81ZM143.51 61.79L143.51 61.79Q144.78 61.79 147.78 60.83Q150.79 59.88 153.24 57.79L153.24 57.79Q155.61 55.69 156.88 53.19Q158.16 50.69 158.16 48.96L158.16 48.96Q158.16 46.96 156.70 46.96L156.70 46.96Q155.61 46.96 153.70 48.41Q151.79 49.87 148.97 53.33L148.97 53.33Q147.24 55.51 145.69 58.06Q144.14 60.61 143.51 61.79ZM153.15 78.17L153.15 78.17Q156.43 71.53 159.43 65.02Q162.43 58.51 165.62 52.60L165.62 52.60Q167.44 49.32 168.71 48.00Q169.99 46.68 172.08 46.68L172.08 46.68Q172.81 46.68 173.63 46.91Q174.45 47.14 175.27 47.14L175.27 47.14Q175.81 47.14 176.08 47.05L176.08 47.05Q174.81 47.78 172.76 50.64Q170.72 53.51 168.62 57.24Q166.53 60.97 164.89 64.25L164.89 64.25Q166.62 62.15 168.53 60.06Q170.44 57.97 172.72 56.06L172.72 56.06Q174.90 54.15 177.95 52.10Q181.00 50.05 183.91 48.69Q186.82 47.32 188.55 47.32L188.55 47.32Q189.19 47.32 189.46 47.41L189.46 47.41Q189.46 47.41 188.46 49.19Q187.46 50.96 185.96 53.83Q184.46 56.69 182.91 59.92Q181.36 63.15 180.13 66.11Q178.91 69.07 178.54 71.07L178.54 71.07Q178.27 72.25 178.27 73.25L178.27 73.25Q178.27 74.71 178.81 75.17Q179.36 75.62 180.00 75.62L180.00 75.62Q181.73 75.62 183.55 74.07Q185.37 72.53 187.05 70.12Q188.73 67.70 190.19 64.97Q191.65 62.24 192.65 59.88L192.65 59.88Q193.74 59.88 193.74 60.70L193.74 60.70Q192.74 63.15 191.24 66.11Q189.73 69.07 187.87 71.71Q186.00 74.35 183.73 76.08Q181.45 77.81 178.81 77.81L178.81 77.81Q176.99 77.81 175.04 76.53Q173.08 75.26 173.08 71.80L173.08 71.80Q173.08 70.80 173.26 69.66Q173.45 68.52 173.90 67.16L173.90 67.16Q174.63 65.34 175.63 63.25Q176.63 61.15 178.91 57.51L178.91 57.51Q179.54 56.51 179.68 55.97Q179.82 55.42 179.82 55.06L179.82 55.06Q179.82 53.96 178.81 53.96L178.81 53.96Q178.00 53.96 176.40 54.87Q174.81 55.78 172.44 58.06L172.44 58.06Q170.17 60.24 167.03 64.25Q163.89 68.25 159.80 76.08L159.80 76.08Q159.16 77.26 158.39 77.35Q157.61 77.44 156.25 77.53L156.25 77.53Q155.34 77.62 154.52 77.67Q153.70 77.71 153.15 78.17ZM199.20 77.81L199.20 77.81Q195.83 77.81 193.15 75.62Q190.46 73.44 190.46 68.98L190.46 68.98Q190.46 65.25 192.15 61.06Q193.83 56.88 196.61 53.19Q199.38 49.50 202.79 47.18Q206.21 44.86 209.66 44.86L209.66 44.86Q211.39 44.86 213.03 45.86Q214.67 46.87 214.67 49.32L214.67 49.32Q214.67 51.60 212.94 54.33Q211.21 57.06 208.03 59.42L208.03 59.42Q206.66 60.42 204.57 61.33Q202.47 62.24 200.38 62.84Q198.29 63.43 196.92 63.43L196.92 63.43Q196.47 64.52 196.06 66.34Q195.65 68.16 195.65 70.07L195.65 70.07Q195.65 72.34 196.56 74.17Q197.47 75.98 199.93 75.98L199.93 75.98Q202.93 75.98 205.52 74.26Q208.12 72.53 210.16 69.89Q212.21 67.25 213.67 64.52Q215.12 61.79 215.94 59.88L215.94 59.88Q217.03 59.88 217.03 60.70L217.03 60.70Q215.85 63.25 214.35 66.25Q212.85 69.25 210.80 71.84Q208.75 74.44 205.89 76.12Q203.02 77.81 199.20 77.81ZM197.56 61.79L197.56 61.79Q198.83 61.79 201.84 60.83Q204.84 59.88 207.30 57.79L207.30 57.79Q209.66 55.69 210.94 53.19Q212.21 50.69 212.21 48.96L212.21 48.96Q212.21 46.96 210.76 46.96L210.76 46.96Q209.66 46.96 207.75 48.41Q205.84 49.87 203.02 53.33L203.02 53.33Q201.29 55.51 199.75 58.06Q198.20 60.61 197.56 61.79ZM216.03 59.61L216.03 59.61Q216.76 58.06 217.94 54.65Q219.13 51.23 220.40 47.05Q221.68 42.86 222.31 39.13L222.31 39.13Q222.59 37.67 223.31 36.99Q224.04 36.31 224.86 36.31L224.86 36.31Q226.04 36.31 227.04 37.45Q228.05 38.58 228.05 40.68L228.05 40.68Q228.05 43.23 226.54 45.05Q225.04 46.87 222.86 48.50L222.86 48.50Q223.77 48.59 224.77 48.64Q225.77 48.69 226.95 48.69L226.95 48.69Q231.23 48.69 235.42 48.14L235.42 48.14Q235.60 48.69 235.60 48.96L235.60 48.96Q235.60 50.14 234.92 51.96Q234.23 53.78 233.51 55.24L233.51 55.24Q233.14 56.06 232.05 58.19Q230.96 60.33 229.68 63.02Q228.41 65.70 227.55 68.30Q226.68 70.89 226.68 72.71L226.68 72.71Q226.68 75.08 228.50 75.08L228.50 75.08Q230.23 75.08 233.32 71.03Q236.42 66.98 239.51 59.88L239.51 59.88Q240.60 59.88 240.60 60.70L240.60 60.70Q239.60 63.15 238.10 66.07Q236.60 68.98 234.78 71.57Q232.96 74.17 230.87 75.85Q228.77 77.53 226.50 77.53L226.50 77.53Q224.77 77.53 223.04 76.12Q221.31 74.71 221.31 71.53L221.31 71.53Q221.31 68.70 222.40 66.02Q223.50 63.34 224.86 60.97Q226.23 58.60 227.32 56.78Q228.41 54.96 228.41 53.87L228.41 53.87Q228.41 52.23 226.36 51.51Q224.31 50.78 221.04 50.69L221.04 50.69Q219.40 54.87 218.58 56.88Q217.76 58.88 217.03 60.70L217.03 60.70Q215.58 60.70 216.03 59.61ZM265.08 80.99L265.08 80.99Q263.08 80.99 261.17 80.72L261.17 80.72Q255.44 79.99 252.75 77.35Q250.07 74.71 250.07 71.62L250.07 71.62Q250.07 68.25 253.12 65.52Q256.16 62.79 261.72 62.79L261.72 62.79Q263.44 62.79 265.40 63.11Q267.36 63.43 269.54 64.16L269.54 64.16Q270.63 64.52 270.63 65.16L270.63 65.16Q270.63 65.52 270.09 65.52L270.09 65.52Q269.54 65.52 269.18 65.34L269.18 65.34Q267.72 64.79 266.40 64.56Q265.08 64.34 263.90 64.34L263.90 64.34Q259.99 64.34 257.94 66.57Q255.89 68.80 255.89 71.44L255.89 71.44Q255.89 73.98 257.98 76.08Q260.08 78.17 264.63 78.17L264.63 78.17Q270.36 78.17 275.23 75.53Q280.10 72.89 284.47 68.61L284.47 68.61Q289.11 64.06 292.93 57.65Q296.75 51.23 300.53 43.91Q304.30 36.58 308.76 29.12Q313.22 21.66 319.05 15.11L319.05 15.11Q320.23 13.83 321.46 12.42Q322.69 11.01 323.87 10.01L323.87 10.01Q320.77 9.56 317.50 9.33Q314.22 9.10 311.04 9.10L311.04 9.10Q306.31 9.10 302.07 9.51Q297.84 9.92 293.66 10.65L293.66 10.65Q289.38 11.47 284.10 13.20Q278.82 14.92 273.86 17.70Q268.90 20.48 265.40 24.39Q261.90 28.30 261.08 33.40L261.08 33.40Q260.99 33.85 260.94 34.35Q260.90 34.85 260.90 35.31L260.90 35.31Q260.90 39.49 263.76 42.22Q266.63 44.95 270.45 44.95L270.45 44.95Q273.27 44.95 275.91 43.45Q278.55 41.95 280.64 39.45Q282.74 36.95 283.74 33.94L283.74 33.94Q283.83 33.03 284.47 33.03L284.47 33.03Q285.01 33.03 285.01 34.03L285.01 34.03Q284.92 38.04 282.69 40.95Q280.46 43.86 277.09 45.36Q273.73 46.87 270.27 46.87L270.27 46.87Q266.72 46.87 263.54 45.36Q260.35 43.86 258.35 40.90Q256.35 37.95 256.35 33.58L256.35 33.58Q256.35 28.48 258.85 24.57Q261.35 20.66 265.54 17.70Q269.72 14.74 274.64 12.69Q279.55 10.65 284.47 9.42Q289.38 8.19 293.38 7.55L293.38 7.55Q297.48 6.92 301.89 6.55Q306.31 6.19 310.86 6.19L310.86 6.19Q314.77 6.19 318.68 6.55Q322.59 6.92 326.33 7.64L326.33 7.64Q327.87 6.46 329.51 5.55Q331.15 4.64 333.15 3.91L333.15 3.91Q334.42 3.37 335.06 3.37L335.06 3.37Q335.61 3.37 335.61 3.73L335.61 3.73Q335.61 4.37 334.15 5.28L334.15 5.28Q333.42 5.64 332.33 6.55Q331.24 7.46 329.97 8.65L329.97 8.65Q335.88 10.10 340.61 13.01L340.61 13.01Q345.80 16.11 348.03 19.57Q350.26 23.02 350.26 26.66L350.26 26.66Q350.26 30.85 347.71 34.99Q345.16 39.13 341.07 42.68Q336.97 46.23 332.06 48.82Q327.14 51.42 322.32 52.60L322.32 52.60Q317.68 53.78 312.95 54.33Q308.22 54.87 304.49 54.87L304.49 54.87Q303.85 54.87 303.17 54.87Q302.48 54.87 301.85 54.78L301.85 54.78Q298.75 59.15 295.48 63.29Q292.20 67.43 288.11 71.34L288.11 71.34Q283.10 76.08 277.19 78.53Q271.27 80.99 265.08 80.99ZM303.12 52.78L303.12 52.78Q306.58 52.87 310.86 52.23Q315.13 51.60 319.41 50.32L319.41 50.32Q326.51 48.14 332.20 44.04Q337.88 39.95 341.20 34.94Q344.53 29.94 344.53 25.12L344.53 25.12Q344.53 22.20 343.12 19.57Q341.70 16.93 338.52 14.83L338.52 14.83Q336.43 13.47 333.79 12.47Q331.15 11.47 328.24 10.83L328.24 10.83Q323.60 17.38 319.55 24.48Q315.50 31.58 311.54 38.77Q307.58 45.95 303.12 52.78ZM343.34 59.61L343.34 59.61Q344.07 58.06 345.25 54.65Q346.44 51.23 347.71 47.05Q348.98 42.86 349.62 39.13L349.62 39.13Q349.89 37.67 350.62 36.99Q351.35 36.31 352.17 36.31L352.17 36.31Q353.35 36.31 354.35 37.45Q355.35 38.58 355.35 40.68L355.35 40.68Q355.35 43.23 353.85 45.05Q352.35 46.87 350.17 48.50L350.17 48.50Q351.08 48.59 352.08 48.64Q353.08 48.69 354.26 48.69L354.26 48.69Q358.54 48.69 362.73 48.14L362.73 48.14Q362.91 48.69 362.91 48.96L362.91 48.96Q362.91 50.14 362.23 51.96Q361.54 53.78 360.81 55.24L360.81 55.24Q360.45 56.06 359.36 58.19Q358.27 60.33 356.99 63.02Q355.72 65.70 354.85 68.30Q353.99 70.89 353.99 72.71L353.99 72.71Q353.99 75.08 355.81 75.08L355.81 75.08Q357.54 75.08 360.63 71.03Q363.73 66.98 366.82 59.88L366.82 59.88Q367.91 59.88 367.91 60.70L367.91 60.70Q366.91 63.15 365.41 66.07Q363.91 68.98 362.09 71.57Q360.27 74.17 358.18 75.85Q356.08 77.53 353.81 77.53L353.81 77.53Q352.08 77.53 350.35 76.12Q348.62 74.71 348.62 71.53L348.62 71.53Q348.62 68.70 349.71 66.02Q350.81 63.34 352.17 60.97Q353.53 58.60 354.63 56.78Q355.72 54.96 355.72 53.87L355.72 53.87Q355.72 52.23 353.67 51.51Q351.62 50.78 348.35 50.69L348.35 50.69Q346.71 54.87 345.89 56.88Q345.07 58.88 344.34 60.70L344.34 60.70Q342.89 60.70 343.34 59.61ZM373.37 77.81L373.37 77.81Q370.01 77.81 367.32 75.62Q364.64 73.44 364.64 68.98L364.64 68.98Q364.64 65.25 366.32 61.06Q368.00 56.88 370.78 53.19Q373.56 49.50 376.97 47.18Q380.38 44.86 383.84 44.86L383.84 44.86Q385.57 44.86 387.20 45.86Q388.84 46.87 388.84 49.32L388.84 49.32Q388.84 51.60 387.11 54.33Q385.38 57.06 382.20 59.42L382.20 59.42Q380.83 60.42 378.74 61.33Q376.65 62.24 374.56 62.84Q372.46 63.43 371.10 63.43L371.10 63.43Q370.64 64.52 370.23 66.34Q369.82 68.16 369.82 70.07L369.82 70.07Q369.82 72.34 370.73 74.17Q371.64 75.98 374.10 75.98L374.10 75.98Q377.10 75.98 379.70 74.26Q382.29 72.53 384.34 69.89Q386.39 67.25 387.84 64.52Q389.30 61.79 390.12 59.88L390.12 59.88Q391.21 59.88 391.21 60.70L391.21 60.70Q390.03 63.25 388.52 66.25Q387.02 69.25 384.98 71.84Q382.93 74.44 380.06 76.12Q377.19 77.81 373.37 77.81ZM371.74 61.79L371.74 61.79Q373.01 61.79 376.01 60.83Q379.01 59.88 381.47 57.79L381.47 57.79Q383.84 55.69 385.11 53.19Q386.39 50.69 386.39 48.96L386.39 48.96Q386.39 46.96 384.93 46.96L384.93 46.96Q383.84 46.96 381.93 48.41Q380.02 49.87 377.19 53.33L377.19 53.33Q375.47 55.51 373.92 58.06Q372.37 60.61 371.74 61.79ZM392.03 77.81L392.03 77.81Q388.30 77.81 385.98 75.48Q383.66 73.16 383.66 70.62L383.66 70.62Q383.66 68.52 384.70 66.75Q385.75 64.97 387.48 64.97L387.48 64.97L387.57 64.79Q389.57 61.15 391.44 57.38Q393.30 53.60 395.58 49.32L395.58 49.32Q397.49 45.77 399.72 43.50Q401.95 41.22 404.95 41.22L404.95 41.22Q405.68 41.22 406.95 41.54Q408.23 41.86 408.23 42.86L408.23 42.86Q408.23 43.59 407.41 43.59L407.41 43.59Q406.77 43.59 406.00 43.23Q405.22 42.86 404.77 42.86L404.77 42.86Q403.04 42.86 401.86 44.86Q400.67 46.87 400.67 49.14L400.67 49.14Q400.67 51.60 401.49 53.55Q402.31 55.51 403.40 57.33Q404.50 59.15 405.31 61.02Q406.13 62.88 406.13 65.06L406.13 65.06Q406.13 69.43 404.45 72.12Q402.77 74.80 400.04 76.17L400.04 76.17L400.13 76.17Q404.95 76.17 408.09 71.66Q411.23 67.16 414.32 59.88L414.32 59.88Q415.41 59.88 415.41 60.70L415.41 60.70Q413.69 64.79 411.59 68.70Q409.50 72.62 406.68 75.17Q403.86 77.71 399.76 77.71L399.76 77.71Q398.03 77.71 396.58 77.35L396.58 77.35Q394.49 77.81 392.03 77.81ZM390.66 68.16L390.66 68.16Q390.66 70.34 391.66 72.34Q392.66 74.35 395.30 75.35L395.30 75.35Q397.67 73.98 398.99 71.12Q400.31 68.25 400.31 65.16L400.31 65.16Q400.31 62.61 399.76 59.97Q399.22 57.33 398.63 54.78Q398.03 52.23 398.03 50.23L398.03 50.23Q398.03 49.59 398.08 49.09Q398.13 48.59 398.22 48.14L398.22 48.14Q396.58 50.60 394.89 53.87Q393.21 57.15 391.66 60.15Q390.12 63.15 388.84 65.06L388.84 65.06Q390.66 65.34 390.66 68.16ZM387.66 72.71L387.66 72.71Q387.66 74.17 388.66 75.26Q389.66 76.35 391.66 76.35L391.66 76.35Q392.57 76.35 393.39 76.17L393.39 76.17Q391.48 74.98 390.34 73.16Q389.21 71.34 389.21 68.98L389.21 68.98Q388.39 69.89 388.02 70.84Q387.66 71.80 387.66 72.71ZM416.32 77.81L416.32 77.81Q412.59 77.81 410.27 75.48Q407.95 73.16 407.95 70.62L407.95 70.62Q407.95 68.52 409.00 66.75Q410.05 64.97 411.78 64.97L411.78 64.97L411.87 64.79Q413.87 61.15 415.73 57.38Q417.60 53.60 419.87 49.32L419.87 49.32Q421.79 45.77 424.01 43.50Q426.24 41.22 429.25 41.22L429.25 41.22Q429.98 41.22 431.25 41.54Q432.52 41.86 432.52 42.86L432.52 42.86Q432.52 43.59 431.70 43.59L431.70 43.59Q431.07 43.59 430.29 43.23Q429.52 42.86 429.06 42.86L429.06 42.86Q427.34 42.86 426.15 44.86Q424.97 46.87 424.97 49.14L424.97 49.14Q424.97 51.60 425.79 53.55Q426.61 55.51 427.70 57.33Q428.79 59.15 429.61 61.02Q430.43 62.88 430.43 65.06L430.43 65.06Q430.43 69.43 428.75 72.12Q427.06 74.80 424.33 76.17L424.33 76.17L424.42 76.17Q429.25 76.17 432.39 71.66Q435.53 67.16 438.62 59.88L438.62 59.88Q439.71 59.88 439.71 60.70L439.71 60.70Q437.98 64.79 435.89 68.70Q433.80 72.62 430.98 75.17Q428.16 77.71 424.06 77.71L424.06 77.71Q422.33 77.71 420.88 77.35L420.88 77.35Q418.78 77.81 416.32 77.81ZM414.96 68.16L414.96 68.16Q414.96 70.34 415.96 72.34Q416.96 74.35 419.60 75.35L419.60 75.35Q421.97 73.98 423.29 71.12Q424.61 68.25 424.61 65.16L424.61 65.16Q424.61 62.61 424.06 59.97Q423.51 57.33 422.92 54.78Q422.33 52.23 422.33 50.23L422.33 50.23Q422.33 49.59 422.38 49.09Q422.42 48.59 422.51 48.14L422.51 48.14Q420.88 50.60 419.19 53.87Q417.51 57.15 415.96 60.15Q414.41 63.15 413.14 65.06L413.14 65.06Q414.96 65.34 414.96 68.16ZM411.96 72.71L411.96 72.71Q411.96 74.17 412.96 75.26Q413.96 76.35 415.96 76.35L415.96 76.35Q416.87 76.35 417.69 76.17L417.69 76.17Q415.78 74.98 414.64 73.16Q413.50 71.34 413.50 68.98L413.50 68.98Q412.69 69.89 412.32 70.84Q411.96 71.80 411.96 72.71Z"
         transform="translate(0, 0)"
         id="path5"
         style="fill:#1a1a1a" />
    </g>
  </svg>
</svg>
